<svg width="16" height="16" viewBox="0 0 16 16" fill="none" xmlns="http://www.w3.org/2000/svg">
<path d="M9.09666 7.99995L15.5444 1.55218C15.6719 1.40339 15.7384 1.21199 15.7309 1.01625C15.7233 0.820498 15.6422 0.634812 15.5037 0.496294C15.3651 0.357776 15.1795 0.276629 14.9837 0.269068C14.788 0.261507 14.5966 0.32809 14.4478 0.45551L7.99999 6.90329L1.55221 0.447732C1.40576 0.301274 1.20712 0.218994 0.999993 0.218994C0.792869 0.218994 0.594229 0.301274 0.44777 0.447732C0.301312 0.594191 0.219032 0.792831 0.219032 0.999954C0.219032 1.20708 0.301312 1.40572 0.44777 1.55218L6.90333 7.99995L0.44777 14.4477C0.366351 14.5175 0.300224 14.6033 0.25354 14.6998C0.206855 14.7962 0.18062 14.9014 0.176483 15.0085C0.172346 15.1156 0.190394 15.2224 0.229497 15.3222C0.268599 15.422 0.327911 15.5127 0.403709 15.5885C0.479507 15.6643 0.570155 15.7236 0.669964 15.7627C0.769772 15.8018 0.876586 15.8198 0.983701 15.8157C1.09082 15.8115 1.19592 15.7853 1.29241 15.7386C1.38891 15.6919 1.47471 15.6258 1.54444 15.5444L7.99999 9.09662L14.4478 15.5444C14.5966 15.6718 14.788 15.7384 14.9837 15.7308C15.1795 15.7233 15.3651 15.6421 15.5037 15.5036C15.6422 15.3651 15.7233 15.1794 15.7309 14.9837C15.7384 14.7879 15.6719 14.5965 15.5444 14.4477L9.09666 7.99995Z" fill="#ECF1F0"/>
</svg>
