<svg width="12" height="17" viewBox="0 0 12 17" fill="none" xmlns="http://www.w3.org/2000/svg">
<path d="M11.8333 6.49984C11.8333 5.4165 11.1333 4.49984 10.1666 4.14984L10.1666 0.666505L8.49996 0.666505L8.49996 4.14984C7.53329 4.49984 6.83329 5.4165 6.83329 6.49984C6.83329 7.58317 7.53329 8.49984 8.49996 8.84984L8.49996 11.4998C8.49996 13.3415 7.00829 14.8332 5.16662 14.8332C3.32496 14.8332 1.83329 13.3415 1.83329 11.4998L1.83329 10.6665L4.33329 10.6665L0.166625 6.49984L0.166625 11.4998C0.166625 14.2582 2.40829 16.4998 5.16662 16.4998C7.92496 16.4998 10.1666 14.2582 10.1666 11.4998L10.1666 8.84984C11.1333 8.49984 11.8333 7.58317 11.8333 6.49984ZM9.33329 7.33317C8.87496 7.33317 8.49996 6.95817 8.49996 6.49984C8.49996 6.0415 8.87496 5.6665 9.33329 5.6665C9.79163 5.6665 10.1666 6.0415 10.1666 6.49984C10.1666 6.95817 9.79163 7.33317 9.33329 7.33317Z" fill="#ECF1F0"/>
</svg>
