<svg width="17" height="16" viewBox="0 0 17 16" fill="none" xmlns="http://www.w3.org/2000/svg">
<path d="M13.8469 3.55332C12.9602 3.13999 12.0002 2.83999 11.0002 2.66666C10.9915 2.66638 10.9828 2.66802 10.9747 2.67148C10.9666 2.67493 10.9594 2.68011 10.9536 2.68666C10.8336 2.90666 10.6936 3.19332 10.6002 3.41332C9.53957 3.25332 8.46091 3.25332 7.40024 3.41332C7.30691 3.18666 7.16691 2.90666 7.04024 2.68666C7.03357 2.67332 7.01357 2.66666 6.99357 2.66666C5.99357 2.83999 5.04024 3.13999 4.14691 3.55332C4.14024 3.55332 4.13357 3.55999 4.12691 3.56666C2.31357 6.27999 1.81357 8.91999 2.06024 11.5333C2.06024 11.5467 2.06691 11.56 2.08024 11.5667C3.28024 12.4467 4.43357 12.98 5.57357 13.3333C5.59357 13.34 5.61357 13.3333 5.62024 13.32C5.88691 12.9533 6.12691 12.5667 6.33357 12.16C6.34691 12.1333 6.33357 12.1067 6.30691 12.1C5.92691 11.9533 5.56691 11.78 5.21357 11.58C5.18691 11.5667 5.18691 11.5267 5.20691 11.5067C5.28024 11.4533 5.35357 11.3933 5.42691 11.34C5.44024 11.3267 5.46024 11.3267 5.47357 11.3333C7.76691 12.38 10.2402 12.38 12.5069 11.3333C12.5202 11.3267 12.5402 11.3267 12.5536 11.34C12.6269 11.4 12.7002 11.4533 12.7736 11.5133C12.8002 11.5333 12.8002 11.5733 12.7669 11.5867C12.4202 11.7933 12.0536 11.96 11.6736 12.1067C11.6469 12.1133 11.6402 12.1467 11.6469 12.1667C11.8602 12.5733 12.1002 12.96 12.3602 13.3267C12.3802 13.3333 12.4002 13.34 12.4202 13.3333C13.5669 12.98 14.7202 12.4467 15.9202 11.5667C15.9336 11.56 15.9402 11.5467 15.9402 11.5333C16.2336 8.51332 15.4536 5.89332 13.8736 3.56666C13.8669 3.55999 13.8602 3.55332 13.8469 3.55332ZM6.68024 9.93999C5.99357 9.93999 5.42024 9.30666 5.42024 8.52666C5.42024 7.74666 5.98024 7.11332 6.68024 7.11332C7.38691 7.11332 7.94691 7.75332 7.94024 8.52666C7.94024 9.30666 7.38024 9.93999 6.68024 9.93999ZM11.3269 9.93999C10.6402 9.93999 10.0669 9.30666 10.0669 8.52666C10.0669 7.74666 10.6269 7.11332 11.3269 7.11332C12.0336 7.11332 12.5936 7.75332 12.5869 8.52666C12.5869 9.30666 12.0336 9.93999 11.3269 9.93999Z" fill="white"/>
</svg>
