<svg width="12" height="20" viewBox="0 0 12 20" fill="none" xmlns="http://www.w3.org/2000/svg">
<path d="M11.7166 9.37695L1.53338 0.237681C1.36346 0.0851112 1.13772 -4.74805e-07 0.902977 -4.85066e-07C0.668231 -4.95327e-07 0.442492 0.0851111 0.27258 0.237681L0.261616 0.248008C0.178961 0.321971 0.113144 0.411 0.0681686 0.509678C0.0231933 0.608356 9.22437e-07 0.714621 9.17743e-07 0.822009C9.13049e-07 0.929396 0.0231933 1.03566 0.0681686 1.13434C0.113144 1.23302 0.178961 1.32205 0.261616 1.39601L9.85098 10.0017L0.261615 18.604C0.17896 18.678 0.113143 18.767 0.0681678 18.8657C0.0231925 18.9643 1.20072e-07 19.0706 1.15378e-07 19.178C1.10684e-07 19.2854 0.0231925 19.3916 0.0681678 19.4903C0.113143 19.589 0.17896 19.678 0.261615 19.752L0.272579 19.7623C0.442492 19.9149 0.66823 20 0.902976 20C1.13772 20 1.36346 19.9149 1.53338 19.7623L11.7166 10.6231C11.8062 10.5427 11.8774 10.446 11.9262 10.3389C11.9749 10.2318 12 10.1165 12 10C12 9.88348 11.9749 9.76818 11.9262 9.66108C11.8774 9.55398 11.8062 9.45732 11.7166 9.37695Z" fill="#ECF1F0"/>
</svg>
