<svg width="16" height="16" viewBox="0 0 16 16" fill="none" xmlns="http://www.w3.org/2000/svg">
<path d="M14 3.33329L8 0.666626L2 3.33329V7.33329C2 11.0333 4.56 14.4933 8 15.3333C9.53333 14.96 10.8867 14.0666 11.92 12.86L9.84 10.78C9.19912 11.2035 8.43148 11.3925 7.66722 11.3147C6.90295 11.2369 6.1891 10.8973 5.64667 10.3533C5.02225 9.72794 4.67154 8.88034 4.67154 7.99663C4.67154 7.11291 5.02225 6.26531 5.64667 5.63996C6.27202 5.01555 7.11962 4.66483 8.00333 4.66483C8.88705 4.66483 9.73465 5.01555 10.36 5.63996C10.9026 6.18317 11.2414 6.89688 11.3191 7.66075C11.3968 8.42461 11.2088 9.19192 10.7867 9.83329L12.72 11.7666C13.5267 10.46 14 8.91996 14 7.33329V3.33329Z" fill="white"/>
<path d="M8 10C9.10457 10 10 9.10457 10 8C10 6.89543 9.10457 6 8 6C6.89543 6 6 6.89543 6 8C6 9.10457 6.89543 10 8 10Z" fill="white"/>
</svg>
