<svg width="16" height="16" viewBox="0 0 16 16" fill="none" xmlns="http://www.w3.org/2000/svg">
<path d="M13.3332 5.33333H11.4598C11.1591 4.81182 10.7443 4.36512 10.2465 4.02667L11.3332 2.94L10.3932 2L8.9465 3.44667C8.63984 3.37333 8.3265 3.33333 7.99984 3.33333C7.67317 3.33333 7.35984 3.37333 7.05984 3.44667L5.6065 2L4.6665 2.94L5.7465 4.02667C5.25317 4.36667 4.83984 4.81333 4.53984 5.33333H2.6665V6.66667H4.05984C4.0265 6.88667 3.99984 7.10667 3.99984 7.33333V8H2.6665V9.33333H3.99984V10C3.99984 10.2267 4.0265 10.4467 4.05984 10.6667H2.6665V12H4.53984C5.23317 13.1933 6.51984 14 7.99984 14C9.47984 14 10.7665 13.1933 11.4598 12H13.3332V10.6667H11.9398C11.9732 10.4467 11.9998 10.2267 11.9998 10V9.33333H13.3332V8H11.9998V7.33333C11.9998 7.10667 11.9732 6.88667 11.9398 6.66667H13.3332V5.33333ZM10.6665 8V10C10.6665 10.1467 10.6465 10.3133 10.6198 10.4667L10.5532 10.9L10.3065 11.3333C9.8265 12.16 8.9465 12.6667 7.99984 12.6667C7.05317 12.6667 6.17317 12.1533 5.69317 11.3333L5.4465 10.9067L5.37984 10.4733C5.3511 10.3171 5.33549 10.1588 5.33317 10V7.33333C5.33317 7.18 5.35317 7.01333 5.37984 6.86667L5.4465 6.43333L5.69317 6C5.89317 5.65333 6.17317 5.35333 6.49984 5.12667L6.87984 4.86667L7.37317 4.74667C7.78642 4.64018 8.21992 4.64018 8.63317 4.74667L9.0865 4.85333L9.49317 5.13333C9.8265 5.36 10.0998 5.65333 10.2998 6.00667L10.5532 6.44L10.6198 6.87333C10.6465 7.02 10.6665 7.18667 10.6665 7.33333V8ZM6.6665 9.33333H9.33317V10.6667H6.6665V9.33333ZM6.6665 6.66667H9.33317V8H6.6665V6.66667Z" fill="white"/>
</svg>
