<svg width="100" height="100" viewBox="0 0 100 100" fill="none" xmlns="http://www.w3.org/2000/svg">
<circle cx="50" cy="50" r="50" fill="white" fill-opacity="0.1"/>
<g clip-path="url(#clip0_2434_803)">
<path d="M27.44 42H30.8C31.064 42 31.28 41.775 31.28 41.5V30.5H41.84C42.104 30.5 42.32 30.275 42.32 30V26.5C42.32 26.225 42.104 26 41.84 26H31.04C28.784 26 26.96 27.9 26.96 30.25V41.5C26.96 41.775 27.176 42 27.44 42ZM58.16 30.5H68.72V41.5C68.72 41.775 68.936 42 69.2 42H72.56C72.824 42 73.04 41.775 73.04 41.5V30.25C73.04 27.9 71.216 26 68.96 26H58.16C57.896 26 57.68 26.225 57.68 26.5V30C57.68 30.275 57.896 30.5 58.16 30.5ZM41.84 69.5H31.28V58.5C31.28 58.225 31.064 58 30.8 58H27.44C27.176 58 26.96 58.225 26.96 58.5V69.75C26.96 72.1 28.784 74 31.04 74H41.84C42.104 74 42.32 73.775 42.32 73.5V70C42.32 69.725 42.104 69.5 41.84 69.5ZM72.56 58H69.2C68.936 58 68.72 58.225 68.72 58.5V69.5H58.16C57.896 69.5 57.68 69.725 57.68 70V73.5C57.68 73.775 57.896 74 58.16 74H68.96C71.216 74 73.04 72.1 73.04 69.75V58.5C73.04 58.225 72.824 58 72.56 58ZM73.52 47.75H26.48C26.216 47.75 26 47.975 26 48.25V51.75C26 52.025 26.216 52.25 26.48 52.25H73.52C73.784 52.25 74 52.025 74 51.75V48.25C74 47.975 73.784 47.75 73.52 47.75Z" fill="#ECF1F0"/>
</g>
<defs>
<clipPath id="clip0_2434_803">
<rect width="48" height="48" fill="white" transform="translate(26 26)"/>
</clipPath>
</defs>
</svg>
