<svg width="100" height="101" viewBox="0 0 100 101" fill="none" xmlns="http://www.w3.org/2000/svg">
<circle cx="50" cy="50.5" r="50" fill="white" fill-opacity="0.1"/>
<g clip-path="url(#clip0_2434_835)">
<path d="M72 52.9C72 58.6287 69.6821 64.1227 65.5563 68.1735C61.4305 72.2243 55.8348 74.5 50 74.5C44.1652 74.5 38.5695 72.2243 34.4437 68.1735C30.3179 64.1227 28 58.6287 28 52.9L28.0733 32.332C34.5511 28.612 42.08 26.5 50.1222 26.5C58.0667 26.5 65.5467 28.588 72 32.212V52.9ZM52.4444 69.532C60.7311 68.356 67.1111 61.3 67.1111 52.9V35.116C61.9778 32.668 56.2089 31.3 50.1222 31.3C43.8889 31.3 37.9733 32.74 32.7422 35.284L32.8889 52.9C32.8889 61.3 39.3178 68.356 47.5556 69.532V64.9H52.4444V69.532ZM47.5556 60.1H40.2222L35.3333 52.9L42.6667 55.3H45.1111L47.5556 52.9H52.4444L54.8889 55.3H57.3333L64.6667 52.9L59.7778 60.1H52.4444L50 57.7L47.5556 60.1ZM35.3333 43.372C36.8978 41.86 39 41.02 41.4444 41.02C43.7667 41.02 45.9422 41.86 47.5556 43.372C45.9422 44.86 43.7667 45.7 41.4444 45.7C39 45.7 36.8978 44.86 35.3333 43.372ZM52.4444 43.372C54.0089 41.86 56.1111 41.02 58.5556 41.02C60.8778 41.02 63.0533 41.86 64.6667 43.372C63.0533 44.86 60.8778 45.7 58.5556 45.7C56.1111 45.7 54.0089 44.86 52.4444 43.372Z" fill="#ECF1F0"/>
</g>
<defs>
<clipPath id="clip0_2434_835">
<rect width="48" height="48" fill="white" transform="translate(26 26.5)"/>
</clipPath>
</defs>
</svg>
