<svg width="44" height="48" viewBox="0 0 44 48" fill="none" xmlns="http://www.w3.org/2000/svg">
<path d="M44 26.4C44 32.1287 41.6821 37.6227 37.5563 41.6735C33.4305 45.7243 27.8348 48 22 48C16.1652 48 10.5695 45.7243 6.44365 41.6735C2.31785 37.6227 0 32.1287 0 26.4L0.0733333 5.832C6.55111 2.112 14.08 0 22.1222 0C30.0667 0 37.5467 2.088 44 5.712V26.4ZM24.4444 43.032C32.7311 41.856 39.1111 34.8 39.1111 26.4V8.616C33.9778 6.168 28.2089 4.8 22.1222 4.8C15.8889 4.8 9.97333 6.24 4.74222 8.784L4.88889 26.4C4.88889 34.8 11.3178 41.856 19.5556 43.032V38.4H24.4444V43.032ZM19.5556 33.6H12.2222L7.33333 26.4L14.6667 28.8H17.1111L19.5556 26.4H24.4444L26.8889 28.8H29.3333L36.6667 26.4L31.7778 33.6H24.4444L22 31.2L19.5556 33.6ZM7.33333 16.872C8.89778 15.36 11 14.52 13.4444 14.52C15.7667 14.52 17.9422 15.36 19.5556 16.872C17.9422 18.36 15.7667 19.2 13.4444 19.2C11 19.2 8.89778 18.36 7.33333 16.872ZM24.4444 16.872C26.0089 15.36 28.1111 14.52 30.5556 14.52C32.8778 14.52 35.0533 15.36 36.6667 16.872C35.0533 18.36 32.8778 19.2 30.5556 19.2C28.1111 19.2 26.0089 18.36 24.4444 16.872Z" fill="#ECF1F0"/>
</svg>
