<svg width="40" height="48" viewBox="0 0 40 48" fill="none" xmlns="http://www.w3.org/2000/svg">
<path d="M15.3333 12.2182L13.5556 13.9636L16.2222 16.5818C15.1111 17.2364 14.2222 18.3273 13.7778 19.6364H8.88889V21.8182H13.3333V24H8.88889V26.1818H13.3333V28.3636H8.88889V30.5455H13.7778C14.6667 33.1636 17.1111 34.9091 20 34.9091C22.8889 34.9091 25.3333 33.1636 26.2222 30.5455H31.1111V28.3636H26.6667V26.1818H31.1111V24H26.6667V21.8182H31.1111V19.6364H26.2222C25.7778 18.3273 24.8889 17.2364 23.7778 16.3636L26.4444 13.7455L24.8889 12.2182L21.7778 15.2727H20C19.5556 15.2727 18.8889 15.2727 18.4444 15.4909L15.3333 12.2182ZM17.7778 21.8182H22.2222V24H17.7778V21.8182ZM17.7778 26.1818H22.2222V28.3636H17.7778V26.1818ZM40 21.8182C40 33.8182 31.5556 45.1636 20 48C8.44445 45.1636 0 33.8182 0 21.8182V8.72727L20 0L40 8.72727V21.8182ZM20 43.6364C28.4444 41.4545 35.5556 31.6364 35.5556 22.2545V11.5636L20 4.8L4.44444 11.5636V22.2545C4.44444 31.6364 11.5556 41.4545 20 43.6364Z" fill="#ECF1F0"/>
</svg>
