<svg width="20" height="20" viewBox="0 0 20 20" fill="none" xmlns="http://www.w3.org/2000/svg">
<path d="M0 9.99998C0 14.3667 2.8 18.0667 6.66667 19.4333V0.56665C2.8 1.93332 0 5.63332 0 9.99998Z" fill="#ED4C5C"/>
<path d="M9.99996 0C8.83329 0 7.69996 0.2 6.66663 0.566667V6.66667H19.4333C18.0666 2.8 14.3666 0 9.99996 0Z" fill="#699635"/>
<path d="M19.4333 6.66663H6.66663V13.3333H19.4333C19.8 12.3 20 11.1666 20 9.99996C20 8.83329 19.8 7.69996 19.4333 6.66663Z" fill="#F9F9F9"/>
<path d="M6.66663 13.3334V19.4334C7.69996 19.8 8.83329 20 9.99996 20C14.3666 20 18.0666 17.2334 19.4333 13.3334H6.66663Z" fill="#3E4347"/>
</svg>
