<svg width="16" height="9" viewBox="0 0 16 9" fill="none" xmlns="http://www.w3.org/2000/svg">
<path d="M8.45258 8.27512L15.0901 1.30887C15.2009 1.19263 15.2627 1.03821 15.2627 0.877618C15.2627 0.71703 15.2009 0.562604 15.0901 0.446369L15.0826 0.438869C15.0289 0.382325 14.9642 0.3373 14.8925 0.306533C14.8209 0.275766 14.7437 0.2599 14.6657 0.2599C14.5877 0.2599 14.5105 0.275766 14.4389 0.306533C14.3672 0.3373 14.3025 0.382325 14.2488 0.438869L7.99883 6.99887L1.75132 0.43887C1.69761 0.382326 1.63295 0.337301 1.56128 0.306534C1.48962 0.275768 1.41244 0.259901 1.33445 0.259901C1.25646 0.259901 1.17928 0.275768 1.10762 0.306534C1.03595 0.337302 0.971292 0.382326 0.917575 0.43887L0.910075 0.44637C0.799269 0.562606 0.737455 0.717031 0.737455 0.87762C0.737455 1.03821 0.799269 1.19263 0.910076 1.30887L7.54758 8.27512C7.60595 8.33638 7.67615 8.38516 7.75393 8.41848C7.83172 8.45181 7.91546 8.46899 8.00008 8.46899C8.0847 8.46899 8.16844 8.45181 8.24622 8.41848C8.324 8.38516 8.3942 8.33638 8.45258 8.27512Z" fill="#ECF1F0"/>
</svg>
