<svg width="18" height="14" viewBox="0 0 18 14" fill="none" xmlns="http://www.w3.org/2000/svg">
<path d="M2.33335 2.8335V4.50016C2.33335 4.9585 1.95835 5.3335 1.50002 5.3335H0.666687V8.66683H1.50002C1.95835 8.66683 2.33335 9.04183 2.33335 9.50016V11.1668C2.33335 12.5418 3.45835 13.6668 4.83335 13.6668H7.33335V12.0002H4.83335C4.37502 12.0002 4.00002 11.6252 4.00002 11.1668V9.50016C4.00002 8.41683 3.30002 7.4835 2.33335 7.14183V6.8585C3.30002 6.51683 4.00002 5.5835 4.00002 4.50016V2.8335C4.00002 2.37516 4.37502 2.00016 4.83335 2.00016H7.33335V0.333496H4.83335C3.45835 0.333496 2.33335 1.4585 2.33335 2.8335ZM16.5 5.3335C16.0417 5.3335 15.6667 4.9585 15.6667 4.50016V2.8335C15.6667 1.4585 14.5417 0.333496 13.1667 0.333496H10.6667V2.00016H13.1667C13.625 2.00016 14 2.37516 14 2.8335V4.50016C14 5.5835 14.7 6.51683 15.6667 6.8585V7.14183C14.7 7.4835 14 8.4085 14 9.50016V11.1668C14 11.6252 13.625 12.0002 13.1667 12.0002H10.6667V13.6668H13.1667C14.5417 13.6668 15.6667 12.5418 15.6667 11.1668V9.50016C15.6667 9.04183 16.0417 8.66683 16.5 8.66683H17.3334V5.3335H16.5Z" fill="#ECF1F0"/>
</svg>
