<svg width="100" height="100" viewBox="0 0 100 100" fill="none" xmlns="http://www.w3.org/2000/svg">
<circle cx="50" cy="50" r="50" fill="white" fill-opacity="0.1"/>
<path d="M45.3333 38.2182L43.5556 39.9636L46.2222 42.5818C45.1111 43.2364 44.2222 44.3273 43.7778 45.6364H38.8889V47.8182H43.3333V50H38.8889V52.1818H43.3333V54.3636H38.8889V56.5455H43.7778C44.6667 59.1636 47.1111 60.9091 50 60.9091C52.8889 60.9091 55.3333 59.1636 56.2222 56.5455H61.1111V54.3636H56.6667V52.1818H61.1111V50H56.6667V47.8182H61.1111V45.6364H56.2222C55.7778 44.3273 54.8889 43.2364 53.7778 42.3636L56.4444 39.7455L54.8889 38.2182L51.7778 41.2727H50C49.5556 41.2727 48.8889 41.2727 48.4444 41.4909L45.3333 38.2182ZM47.7778 47.8182H52.2222V50H47.7778V47.8182ZM47.7778 52.1818H52.2222V54.3636H47.7778V52.1818ZM70 47.8182C70 59.8182 61.5556 71.1636 50 74C38.4444 71.1636 30 59.8182 30 47.8182V34.7273L50 26L70 34.7273V47.8182ZM50 69.6364C58.4444 67.4545 65.5556 57.6364 65.5556 48.2545V37.5636L50 30.8L34.4444 37.5636V48.2545C34.4444 57.6364 41.5556 67.4545 50 69.6364Z" fill="#ECF1F0"/>
</svg>
