<svg width="12" height="20" viewBox="0 0 12 20" fill="none" xmlns="http://www.w3.org/2000/svg">
<path d="M0.283406 10.6231L10.4666 19.7623C10.6365 19.9149 10.8623 20 11.097 20C11.3318 20 11.5575 19.9149 11.7274 19.7623L11.7384 19.752C11.821 19.678 11.8869 19.589 11.9318 19.4903C11.9768 19.3916 12 19.2854 12 19.178C12 19.0706 11.9768 18.9643 11.9318 18.8657C11.8869 18.767 11.821 18.678 11.7384 18.604L2.14902 9.99828L11.7384 1.39601C11.821 1.32205 11.8869 1.23302 11.9318 1.13434C11.9768 1.03566 12 0.929398 12 0.82201C12 0.714623 11.9768 0.608359 11.9318 0.50968C11.8869 0.411001 11.821 0.321974 11.7384 0.248011L11.7274 0.237682C11.5575 0.0851118 11.3318 1.3513e-07 11.097 1.32331e-07C10.8623 1.29531e-07 10.6365 0.0851117 10.4666 0.237682L0.283406 9.37695C0.193849 9.45732 0.122551 9.55398 0.0738356 9.66108C0.0251199 9.76818 1.20638e-07 9.88348 1.19249e-07 10C1.17859e-07 10.1165 0.0251199 10.2318 0.0738355 10.3389C0.122551 10.446 0.193849 10.5427 0.283406 10.6231Z" fill="#ECF1F0"/>
</svg>
