<svg width="20" height="20" viewBox="0 0 20 20" fill="none" xmlns="http://www.w3.org/2000/svg">
<path d="M9.96665 0C5.63332 0 1.93332 2.8 0.56665 6.66667H19.4333C18.0333 2.8 14.3333 0 9.96665 0Z" fill="#F9F9F9"/>
<path d="M9.96665 20C14.3333 20 18.0333 17.2 19.4 13.3334H0.56665C1.93332 17.2334 5.63332 20 9.96665 20Z" fill="#ED4C5C"/>
<path d="M0.566667 6.66663C0.2 7.69996 0 8.83329 0 9.99996C0 11.1666 0.2 12.3 0.566667 13.3333H19.4333C19.8 12.3 20 11.1666 20 9.99996C20 8.83329 19.8 7.69996 19.4333 6.66663H0.566667Z" fill="#428BC1"/>
</svg>
