<svg width="16" height="9" viewBox="0 0 16 9" fill="none" xmlns="http://www.w3.org/2000/svg">
<path d="M7.54742 0.724881L0.909924 7.69113C0.799118 7.80737 0.737305 7.96179 0.737305 8.12238C0.737305 8.28297 0.799118 8.4374 0.909924 8.55363L0.917424 8.56113C0.971141 8.61767 1.0358 8.6627 1.10746 8.69347C1.17913 8.72423 1.25631 8.7401 1.3343 8.7401C1.41229 8.7401 1.48947 8.72423 1.56113 8.69347C1.6328 8.6627 1.69746 8.61767 1.75117 8.56113L8.00117 2.00113L14.2487 8.56113C14.3024 8.61767 14.367 8.6627 14.4387 8.69347C14.5104 8.72423 14.5876 8.7401 14.6655 8.7401C14.7435 8.7401 14.8207 8.72423 14.8924 8.69347C14.964 8.6627 15.0287 8.61767 15.0824 8.56113L15.0899 8.55363C15.2007 8.4374 15.2625 8.28297 15.2625 8.12238C15.2625 7.96179 15.2007 7.80737 15.0899 7.69113L8.45242 0.724881C8.39405 0.663616 8.32385 0.614842 8.24607 0.581516C8.16828 0.54819 8.08454 0.531006 7.99992 0.531006C7.9153 0.531006 7.83156 0.54819 7.75378 0.581516C7.676 0.614842 7.6058 0.663616 7.54742 0.724881Z" fill="#ECF1F0"/>
</svg>
