<svg width="48" height="48" viewBox="0 0 48 48" fill="none" xmlns="http://www.w3.org/2000/svg">
<path d="M1.44 16H4.8C5.064 16 5.28 15.775 5.28 15.5V4.5H15.84C16.104 4.5 16.32 4.275 16.32 4V0.5C16.32 0.225 16.104 0 15.84 0H5.04C2.784 0 0.96 1.9 0.96 4.25V15.5C0.96 15.775 1.176 16 1.44 16ZM32.16 4.5H42.72V15.5C42.72 15.775 42.936 16 43.2 16H46.56C46.824 16 47.04 15.775 47.04 15.5V4.25C47.04 1.9 45.216 0 42.96 0H32.16C31.896 0 31.68 0.225 31.68 0.5V4C31.68 4.275 31.896 4.5 32.16 4.5ZM15.84 43.5H5.28V32.5C5.28 32.225 5.064 32 4.8 32H1.44C1.176 32 0.96 32.225 0.96 32.5V43.75C0.96 46.1 2.784 48 5.04 48H15.84C16.104 48 16.32 47.775 16.32 47.5V44C16.32 43.725 16.104 43.5 15.84 43.5ZM46.56 32H43.2C42.936 32 42.72 32.225 42.72 32.5V43.5H32.16C31.896 43.5 31.68 43.725 31.68 44V47.5C31.68 47.775 31.896 48 32.16 48H42.96C45.216 48 47.04 46.1 47.04 43.75V32.5C47.04 32.225 46.824 32 46.56 32ZM47.52 21.75H0.48C0.216 21.75 0 21.975 0 22.25V25.75C0 26.025 0.216 26.25 0.48 26.25H47.52C47.784 26.25 48 26.025 48 25.75V22.25C48 21.975 47.784 21.75 47.52 21.75Z" fill="#ECF1F0"/>
</svg>
