<svg width="16" height="16" viewBox="0 0 16 16" fill="none" xmlns="http://www.w3.org/2000/svg">
<path d="M8.66671 5.71338C8.54152 5.71338 8.41755 5.73804 8.30189 5.78595C8.18622 5.83386 8.08113 5.90408 7.9926 5.9926C7.90408 6.08113 7.83386 6.18622 7.78595 6.30189C7.73804 6.41755 7.71338 6.54152 7.71338 6.66671C7.71338 6.79191 7.73804 6.91587 7.78595 7.03154C7.83386 7.1472 7.90408 7.2523 7.9926 7.34082C8.08113 7.42935 8.18622 7.49957 8.30189 7.54748C8.41755 7.59539 8.54152 7.62005 8.66671 7.62005C8.91955 7.62005 9.16204 7.51961 9.34082 7.34082C9.51961 7.16204 9.62005 6.91955 9.62005 6.66671C9.62005 6.41387 9.51961 6.17139 9.34082 5.9926C9.16204 5.81382 8.91955 5.71338 8.66671 5.71338Z" fill="white"/>
<path d="M8.6665 2C6.1665 2 4.13317 3.96 4.01317 6.42667L2.73317 8.13333C2.69603 8.18286 2.67341 8.24174 2.66785 8.3034C2.66229 8.36505 2.67401 8.42704 2.70169 8.4824C2.72938 8.53777 2.77194 8.58434 2.82459 8.61688C2.87725 8.64943 2.93793 8.66667 2.99984 8.66667H3.99984V10.6667C3.99984 11.4 4.59984 12 5.33317 12H5.99984V14H10.6665V10.88C11.6227 10.4254 12.3959 9.65913 12.859 8.70704C13.3221 7.75495 13.4477 6.67366 13.215 5.64078C12.9824 4.6079 12.4054 3.68484 11.5788 3.02323C10.7523 2.36161 9.72526 2.00078 8.6665 2ZM10.6665 6.66667C10.6665 6.75333 10.6598 6.84 10.6532 6.92667L11.2065 7.36667C11.2598 7.40667 11.2732 7.47333 11.2398 7.53333L10.7065 8.46C10.6732 8.52 10.5998 8.54 10.5465 8.52L9.8865 8.25333C9.7465 8.36 9.59984 8.44667 9.43984 8.51333L9.33317 9.22C9.3265 9.28667 9.2665 9.33333 9.19984 9.33333H8.13317C8.0665 9.33333 8.01317 9.28667 7.99984 9.22L7.89984 8.51333C7.73317 8.44667 7.5865 8.36 7.4465 8.25333L6.7865 8.52C6.7265 8.54 6.65317 8.52 6.61984 8.46L6.0865 7.53333C6.07041 7.50636 6.06491 7.47438 6.07107 7.44358C6.07723 7.41278 6.09461 7.38537 6.11984 7.36667L6.67984 6.92667C6.67317 6.84 6.6665 6.75333 6.6665 6.66667C6.6665 6.58 6.67984 6.48667 6.69317 6.40667L6.1265 5.96667C6.07317 5.92667 6.05984 5.86 6.09317 5.79333L6.6265 4.87333C6.65984 4.81333 6.7265 4.79333 6.7865 4.81333L7.45317 5.08C7.5865 4.98 7.73984 4.88667 7.89984 4.82L7.99984 4.11333C8.01317 4.04667 8.0665 4 8.13317 4H9.19984C9.2665 4 9.31984 4.04667 9.33317 4.11333L9.43317 4.82C9.59317 4.88667 9.73984 4.97333 9.87984 5.08L10.5465 4.81333C10.6065 4.79333 10.6798 4.81333 10.7065 4.87333L11.2398 5.79333C11.2564 5.82132 11.2621 5.85439 11.256 5.88631C11.2498 5.91823 11.2322 5.9468 11.2065 5.96667L10.6398 6.40667C10.6598 6.48667 10.6665 6.57333 10.6665 6.66667Z" fill="white"/>
</svg>
